<?xml version="1.0" encoding="UTF-8"?>
<svg xmlns="http://www.w3.org/2000/svg" xmlns:xlink="http://www.w3.org/1999/xlink" viewBox="0 0 70.92 73.51">
  <defs>
    <style>
      .cls-1 {
        fill: none;
      }

      .cls-2 {
        fill: url(#radial-gradient-2);
      }

      .cls-2, .cls-3, .cls-4, .cls-5, .cls-6 {
        mix-blend-mode: multiply;
      }

      .cls-3 {
        fill: url(#radial-gradient-3);
      }

      .cls-7 {
        fill: url(#linear-gradient);
      }

      .cls-8 {
        clip-path: url(#clippath);
      }

      .cls-9 {
        clip-path: url(#clippath-1);
      }

      .cls-10 {
        clip-path: url(#clippath-2);
      }

      .cls-4 {
        fill: url(#linear-gradient-11);
        opacity: .5;
      }

      .cls-5 {
        fill: url(#linear-gradient-18);
        opacity: .64;
      }

      .cls-11 {
        fill: url(#linear-gradient-8);
      }

      .cls-11, .cls-12, .cls-13, .cls-14, .cls-15, .cls-16, .cls-17, .cls-18, .cls-19, .cls-20, .cls-21 {
        mix-blend-mode: screen;
      }

      .cls-12 {
        fill: url(#linear-gradient-9);
      }

      .cls-13 {
        fill: url(#linear-gradient-3);
      }

      .cls-14 {
        fill: url(#linear-gradient-2);
      }

      .cls-15 {
        fill: url(#linear-gradient-6);
      }

      .cls-16 {
        fill: url(#linear-gradient-5);
      }

      .cls-17 {
        fill: url(#linear-gradient-12);
      }

      .cls-18 {
        fill: url(#linear-gradient-13);
      }

      .cls-19 {
        fill: url(#linear-gradient-19);
      }

      .cls-20 {
        fill: url(#linear-gradient-16);
      }

      .cls-21 {
        fill: url(#linear-gradient-20);
      }

      .cls-22 {
        fill: url(#linear-gradient-4);
      }

      .cls-23 {
        fill: url(#linear-gradient-7);
      }

      .cls-6 {
        fill: url(#radial-gradient);
      }

      .cls-24 {
        fill: url(#linear-gradient-14);
      }

      .cls-25 {
        fill: url(#linear-gradient-15);
      }

      .cls-26 {
        fill: url(#linear-gradient-17);
      }

      .cls-27 {
        fill: url(#linear-gradient-10);
      }

      .cls-28 {
        isolation: isolate;
      }
    </style>
    <linearGradient id="linear-gradient" x1="136.25" y1="-87.92" x2="109.49" y2="-111.36" gradientTransform="translate(194.51 -27.78) rotate(-160.29)" gradientUnits="userSpaceOnUse">
      <stop offset="0" stop-color="#fede00"/>
      <stop offset=".45" stop-color="#f9ae10"/>
      <stop offset=".8" stop-color="#f7901b"/>
      <stop offset="1" stop-color="#f6851f"/>
    </linearGradient>
    <linearGradient id="linear-gradient-2" x1="43.29" y1="32.12" x2="52.6" y2="41.44" gradientUnits="userSpaceOnUse">
      <stop offset="0" stop-color="#fff"/>
      <stop offset=".05" stop-color="#e4e4e4"/>
      <stop offset=".15" stop-color="#b0b0b0"/>
      <stop offset=".26" stop-color="#818181"/>
      <stop offset=".37" stop-color="#595959"/>
      <stop offset=".48" stop-color="#393939"/>
      <stop offset=".6" stop-color="#202020"/>
      <stop offset=".72" stop-color="#0e0e0e"/>
      <stop offset=".85" stop-color="#040404"/>
      <stop offset="1" stop-color="#010101"/>
    </linearGradient>
    <linearGradient id="linear-gradient-3" x1="57.29" y1="24.88" x2="47.65" y2="37.57" xlink:href="#linear-gradient-2"/>
    <clipPath id="clippath">
      <path class="cls-1" d="M.45,49.65c-1.94,3.41,2.82,13.67,6.56,21.48,2.76,4.29,7.95,2.15,8.84-1.5,.49-2-.2-3.24-1.33-5.31-6.98-12.7-8.61-22.59-7.82-23.91L.45,49.65"/>
    </clipPath>
    <radialGradient id="radial-gradient" cx="85.13" cy="-200.77" fx="85.13" fy="-200.77" r="10.28" gradientTransform="translate(183.39 -8.15) rotate(-169.43) scale(1.88 .5)" gradientUnits="userSpaceOnUse">
      <stop offset="0" stop-color="#b81f24"/>
      <stop offset=".01" stop-color="#b92227"/>
      <stop offset=".29" stop-color="#d17073"/>
      <stop offset=".54" stop-color="#e5adaf"/>
      <stop offset=".75" stop-color="#f3d9da"/>
      <stop offset=".91" stop-color="#fbf4f5"/>
      <stop offset="1" stop-color="#fff"/>
    </radialGradient>
    <linearGradient id="linear-gradient-4" x1="155.1" y1="-135.1" x2="122.41" y2="-169.43" gradientTransform="translate(194.51 -27.78) rotate(-160.29)" gradientUnits="userSpaceOnUse">
      <stop offset="0" stop-color="#fede00"/>
      <stop offset=".37" stop-color="#f6851f"/>
      <stop offset=".6" stop-color="#f6851f"/>
      <stop offset="1" stop-color="#f6851f"/>
    </linearGradient>
    <linearGradient id="linear-gradient-5" x1="11.36" y1="68.98" x2="-13.6" y2="42.77" xlink:href="#linear-gradient-2"/>
    <linearGradient id="linear-gradient-6" x1="15.41" y1="51.39" x2="1.01" y2="65.79" xlink:href="#linear-gradient-2"/>
    <clipPath id="clippath-1">
      <path class="cls-1" d="M44.16,24.65c-1.11,2.39-.2,3.95,.95,5.93,5.65,9.68,5.86,16.6,5.3,17.59,1.88-2.77,4.38-6.47,6.26-9.24,.6-1.12,.08-7.62-4.1-15.43-1.48-2.08-3.71-2.45-6.44-1.08-.94,.72-1.46,1.12-1.97,2.22"/>
    </clipPath>
    <radialGradient id="radial-gradient-2" cx="68.02" cy="-121.76" fx="68.02" fy="-121.76" r="11.4" gradientTransform="translate(183.39 -8.15) rotate(-169.43) scale(1.88 .5)" gradientUnits="userSpaceOnUse">
      <stop offset="0" stop-color="#b81f24"/>
      <stop offset=".09" stop-color="#c13d41"/>
      <stop offset=".27" stop-color="#d4777a"/>
      <stop offset=".44" stop-color="#e3a8aa"/>
      <stop offset=".61" stop-color="#efcdce"/>
      <stop offset=".76" stop-color="#f7e8e9"/>
      <stop offset=".9" stop-color="#fdf9f9"/>
      <stop offset="1" stop-color="#fff"/>
    </radialGradient>
    <linearGradient id="linear-gradient-7" x1="130.32" y1="-62.84" x2="103.57" y2="-86.28" gradientTransform="translate(194.51 -27.78) rotate(-160.29)" gradientUnits="userSpaceOnUse">
      <stop offset="0" stop-color="#f15c22"/>
      <stop offset=".27" stop-color="#de4822"/>
      <stop offset=".73" stop-color="#c22a23"/>
      <stop offset="1" stop-color="#b81f24"/>
    </linearGradient>
    <linearGradient id="linear-gradient-8" x1="57.33" y1="10.51" x2="66.64" y2="19.82" xlink:href="#linear-gradient-2"/>
    <linearGradient id="linear-gradient-9" x1="71.33" y1="3.26" x2="61.69" y2="15.95" xlink:href="#linear-gradient-2"/>
    <linearGradient id="linear-gradient-10" x1="109.36" y1="-98.73" x2="152.06" y2="-98.73" gradientTransform="translate(194.51 -27.78) rotate(-160.29)" gradientUnits="userSpaceOnUse">
      <stop offset="0" stop-color="#f15c22"/>
      <stop offset=".37" stop-color="#b81f24"/>
      <stop offset=".6" stop-color="#b81f24"/>
      <stop offset="1" stop-color="#b81f24"/>
    </linearGradient>
    <linearGradient id="linear-gradient-11" x1="107" y1="-94.29" x2="153.84" y2="-94.29" xlink:href="#linear-gradient-10"/>
    <linearGradient id="linear-gradient-12" x1="45.76" y1="5.31" x2="45.76" y2="23.91" xlink:href="#linear-gradient-2"/>
    <linearGradient id="linear-gradient-13" x1="23.62" y1="22.87" x2="72.3" y2="22.87" xlink:href="#linear-gradient-2"/>
    <clipPath id="clippath-2">
      <path class="cls-1" d="M14.49,28.04c-1.94,3.41,2.82,13.67,6.56,21.48,2.76,4.29,7.95,2.15,8.84-1.5,.49-2-.2-3.24-1.33-5.31-6.98-12.7-8.61-22.59-7.82-23.91l-6.26,9.24"/>
    </clipPath>
    <radialGradient id="radial-gradient-3" cx="79.88" cy="-152.75" fx="79.88" fy="-152.75" r="10.28" xlink:href="#radial-gradient"/>
    <linearGradient id="linear-gradient-14" x1="149.17" y1="-110.02" x2="116.48" y2="-144.34" xlink:href="#linear-gradient-7"/>
    <linearGradient id="linear-gradient-15" x1="25.4" y1="47.36" x2=".44" y2="21.15" gradientTransform="matrix(1, 0, 0, 1, 0, 0)" xlink:href="#linear-gradient-7"/>
    <linearGradient id="linear-gradient-16" x1="11.48" y1="24.27" x2="21.57" y2="32.74" xlink:href="#linear-gradient-2"/>
    <linearGradient id="linear-gradient-17" x1="115.29" y1="-123.82" x2="157.99" y2="-123.82" xlink:href="#linear-gradient-4"/>
    <linearGradient id="linear-gradient-18" x1="113.73" y1="-120.04" x2="157.78" y2="-120.04" xlink:href="#linear-gradient-4"/>
    <linearGradient id="linear-gradient-19" x1="31.72" y1="26.92" x2="31.72" y2="45.52" xlink:href="#linear-gradient-2"/>
    <linearGradient id="linear-gradient-20" x1="27.02" y1="34.4" x2="29.93" y2="53.11" xlink:href="#linear-gradient-2"/>
  </defs>
  <g class="cls-28">
    <g id="Layer_2" data-name="Layer 2">
      <g id="Layer_1-2" data-name="Layer 1">
        <g>
          <g>
            <g>
              <path class="cls-7" d="M44.16,24.65c-1.11,2.39-.2,3.95,.95,5.93,5.65,9.68,5.86,16.6,5.3,17.59,1.88-2.77,4.38-6.47,6.25-9.24,.6-1.12,.08-7.62-4.1-15.43-1.48-2.08-3.71-2.45-6.44-1.08-.94,.72-1.46,1.12-1.97,2.22"/>
              <path class="cls-14" d="M50.54,47.94c.56-.99,.34-7.91-5.3-17.59-1.15-1.98-2.07-3.54-.95-5.93,.03-.05,.05-.1,.08-.15-.07,.12-.13,.25-.2,.39-1.11,2.39-.2,3.95,.95,5.93,5.65,9.68,5.86,16.6,5.3,17.59,1.88-2.77,4.38-6.47,6.25-9.24,.02-.04,.04-.09,.06-.15-1.87,2.76-4.34,6.41-6.2,9.15Z"/>
              <path class="cls-13" d="M52.57,23.51c-.94-1.32-2.17-1.95-3.64-1.89,1.35,.03,2.49,.66,3.36,1.89,4.18,7.81,4.7,14.3,4.1,15.43-1.73,2.56-3.99,5.9-5.81,8.58-.04,.31-.09,.53-.17,.66,1.88-2.77,4.38-6.47,6.25-9.24,.6-1.12,.08-7.62-4.1-15.43Z"/>
            </g>
            <g class="cls-8">
              <path class="cls-6" d="M-10.81,56.93c.52-2.77,9.42-3.43,19.89-1.48,10.47,1.95,18.53,5.78,18.02,8.55-.52,2.77-9.42,3.43-19.89,1.48-10.47-1.95-18.53-5.78-18.02-8.55Z"/>
            </g>
            <path class="cls-22" d="M.45,49.65c-1.94,3.41,2.82,13.67,6.56,21.48,2.76,4.29,7.95,2.15,8.84-1.5,.49-2-.2-3.24-1.33-5.31-6.98-12.7-8.61-22.59-7.82-23.91L.45,49.65"/>
            <path class="cls-16" d="M7.27,71.03C3.83,63.85-.45,54.65,.17,50.34c-1.09,3.94,3.32,13.45,6.84,20.79,1.29,2,3.1,2.6,4.77,2.3-1.6,.16-3.28-.5-4.51-2.4Z"/>
            <path class="cls-15" d="M14.52,64.32c-6.98-12.7-8.61-22.59-7.82-23.91l-.24,.36c-.52,2.04,1.28,11.57,7.92,23.64,1.14,2.07,1.82,3.32,1.33,5.31-.3,1.22-1.09,2.27-2.1,2.97,1.08-.7,1.93-1.79,2.24-3.07,.49-2-.2-3.24-1.33-5.31Z"/>
          </g>
          <g class="cls-9">
            <path class="cls-2" d="M25.86,23.9c.57-3.07,10.45-3.8,22.06-1.64,11.61,2.17,20.56,6.41,19.99,9.48-.57,3.07-10.45,3.8-22.06,1.64-11.61-2.17-20.56-6.41-19.99-9.48Z"/>
          </g>
          <g>
            <g>
              <path class="cls-23" d="M58.2,3.04c-1.11,2.39-.2,3.95,.95,5.93,5.65,9.68,5.86,16.6,5.3,17.59,1.88-2.77,4.38-6.47,6.25-9.24,.6-1.12,.08-7.62-4.1-15.43-1.48-2.08-3.71-2.45-6.44-1.08-.94,.72-1.46,1.12-1.97,2.22"/>
              <path class="cls-11" d="M64.58,26.33c.56-.99,.34-7.91-5.3-17.59-1.15-1.98-2.07-3.54-.95-5.93,.03-.05,.05-.1,.08-.15-.07,.12-.13,.25-.2,.39-1.11,2.39-.2,3.95,.95,5.93,5.65,9.68,5.86,16.6,5.3,17.59,1.88-2.77,4.38-6.47,6.25-9.24,.02-.04,.04-.09,.06-.15-1.87,2.76-4.34,6.41-6.2,9.15Z"/>
              <path class="cls-12" d="M66.61,1.89c-.94-1.32-2.17-1.95-3.64-1.89,1.35,.03,2.49,.66,3.36,1.89,4.18,7.81,4.7,14.3,4.1,15.43-1.73,2.56-3.99,5.9-5.81,8.58-.04,.31-.09,.53-.17,.66,1.88-2.77,4.38-6.47,6.25-9.24,.6-1.12,.08-7.62-4.1-15.43Z"/>
            </g>
            <path class="cls-27" d="M64.46,26.56c-2.43,2.85-9.02,2.2-23.84-.48-7.12-1.29-21.92-3.96-26.14,1.96l6.26-9.24c3.3-4.15,10.72-4.75,25.61-2.06,13.63,2.46,22.08,3.73,24.36,.58-1.88,2.77-4.23,6.58-6.25,9.24"/>
            <path class="cls-4" d="M46.35,16.74c-14.89-2.69-22.31-2.09-25.61,2.06l-1.11,1.64c6.88-1.84,17.47,.07,23.32,1.13,12.57,2.27,19.74,3.22,23.57,2.08,1.45-2.14,2.93-4.47,4.19-6.33-2.29,3.15-10.73,1.88-24.36-.58Z"/>
            <path class="cls-17" d="M46.35,16.74c-14.8-2.67-22.22-2.1-25.54,1.98,.06,.02,.13,.04,.19,.07,3.42-3.88,10.83-4.38,25.35-1.76,12.62,2.28,20.79,3.53,23.75,1.21,.21-.31,.42-.63,.61-.92-2.29,3.15-10.73,1.88-24.36-.58Z"/>
            <path class="cls-18" d="M70.11,17.94c-1.76,2.66-3.84,5.95-5.65,8.34-2.43,2.85-9.02,2.2-23.84-.48-6.72-1.21-20.28-3.66-25.33,1.05l-.81,1.2c4.21-5.93,19.02-3.25,26.14-1.96,14.82,2.68,21.4,3.34,23.84,.48,2.03-2.66,4.38-6.47,6.25-9.24-.17,.23-.37,.43-.6,.62Z"/>
            <g class="cls-10">
              <path class="cls-3" d="M3.23,35.31c.52-2.77,9.42-3.43,19.89-1.48,10.47,1.95,18.53,5.78,18.02,8.55-.52,2.77-9.42,3.43-19.89,1.48-10.47-1.95-18.53-5.78-18.02-8.55Z"/>
            </g>
            <path class="cls-24" d="M14.49,28.04c-1.94,3.41,2.82,13.67,6.56,21.48,2.76,4.29,7.95,2.15,8.84-1.5,.49-2-.2-3.24-1.33-5.31-6.98-12.7-8.61-22.59-7.82-23.91l-6.26,9.24"/>
            <path class="cls-25" d="M21.31,49.42c-3.44-7.18-7.72-16.38-7.1-20.69-1.09,3.94,3.32,13.45,6.84,20.79,1.29,2,3.1,2.6,4.77,2.3-1.6,.16-3.28-.5-4.51-2.4Z"/>
            <path class="cls-20" d="M28.56,42.71c-6.98-12.7-8.61-22.59-7.82-23.91l-.24,.36c-.52,2.04,1.28,11.57,7.92,23.64,1.14,2.07,1.82,3.32,1.33,5.31-.3,1.22-1.09,2.27-2.1,2.97,1.08-.7,1.93-1.79,2.24-3.07,.49-2-.2-3.24-1.33-5.31Z"/>
          </g>
          <g>
            <path class="cls-26" d="M50.42,48.17c-2.43,2.85-9.02,2.2-23.84-.48-7.12-1.29-21.92-3.96-26.14,1.96l6.26-9.24c3.3-4.15,10.72-4.75,25.61-2.06,13.63,2.46,22.08,3.73,24.36,.58-1.88,2.77-4.23,6.58-6.25,9.24"/>
            <path class="cls-5" d="M32.31,38.36c-14.89-2.69-22.31-2.09-25.61,2.06l-1.88,2.78c6.1-3.19,18.14-1.01,24.4,.12,13.81,2.5,20.68,3.29,23.74,1.25,1.3-1.94,2.59-3.97,3.72-5.63-2.29,3.15-10.73,1.88-24.36-.58Z"/>
          </g>
          <path class="cls-19" d="M32.31,38.36c-14.8-2.67-22.22-2.1-25.54,1.98,.06,.02,.13,.04,.19,.07,3.42-3.88,10.83-4.38,25.35-1.76,12.62,2.28,20.79,3.53,23.75,1.21,.21-.31,.42-.62,.61-.92-2.29,3.15-10.73,1.88-24.36-.58Z"/>
          <path class="cls-21" d="M56.07,39.55c-1.76,2.66-3.84,5.95-5.65,8.34-2.43,2.85-9.02,2.2-23.84-.48-6.72-1.21-20.28-3.66-25.33,1.05l-.81,1.2c4.21-5.93,19.02-3.25,26.14-1.96,14.82,2.68,21.4,3.34,23.84,.48,2.03-2.66,4.38-6.47,6.25-9.24-.17,.23-.37,.43-.6,.62Z"/>
        </g>
      </g>
    </g>
  </g>
</svg>